<svg width="100" height="31" viewBox="0 0 100 31" fill="none" xmlns="http://www.w3.org/2000/svg">
<path fill-rule="evenodd" clip-rule="evenodd" d="M68.8482 3.04956C66.2674 3.04956 64.0679 3.45542 62.2078 4.0712L62.5829 7.88487C64.2731 7.27608 66.0617 6.9682 67.7876 6.9682C73.8415 6.9682 75.4249 10.6139 75.8073 12.9301H65.6803V16.8487H75.8073C75.7363 20.5224 73.2612 23.5244 68.3042 23.5244C67.0523 23.5244 64.9166 23.3774 62.4482 22.3558L64.315 27.0302C65.6093 27.3031 66.8684 27.443 68.127 27.443C76.3233 27.443 80.9694 22.4677 80.9694 14.8684C80.9694 7.47897 76.0757 3.04956 68.8482 3.04956ZM87.4969 16.2679H90.5233C93.2534 16.2679 94.8306 17.4296 94.8306 19.8437C94.8306 22.2648 93.2534 23.4194 90.5233 23.4194H87.4969V16.2679ZM82.6104 3.32246V27.1701H91.4223C98.3099 27.1701 100 22.7406 100 20.2215C100 17.1496 98.515 12.5173 91.4223 12.5173H87.4969V7.54201H98.0342V3.32246H82.6104ZM46.6354 17.8704L49.9734 8.12274H50.0441L53.5871 17.8704H46.6354ZM47.4275 3.32246L37.8239 27.1701H43.0571L45.0867 21.824H55.0368L57.0663 27.1701H62.5757L53.0073 3.32246H47.4275Z" fill="#2F88F0"/>
<path fill-rule="evenodd" clip-rule="evenodd" d="M18.3125 16.7778L17.1091 17.9583L17.909 19.8542L20.2449 17.5625L18.3125 16.7778ZM16.6632 18.1389H14.9572L14.1573 20.0347H17.456L16.6632 18.1389ZM18.5036 14.6667V16.3333L20.429 17.118V13.8819L18.5036 14.6667ZM14.5042 17.9583L13.3008 16.7778L11.3754 17.5625L13.7114 19.8542L14.5042 17.9583ZM17.909 11.1458L17.1091 13.0416L18.3125 14.2222L20.2449 13.4375L17.909 11.1458ZM14.9572 12.8541H16.6632L17.456 10.9653H14.1573L14.9572 12.8541ZM13.1167 16.3333V14.6667L11.1914 13.8819V17.118L13.1167 16.3333ZM13.3008 14.2222L14.5042 13.0416L13.7114 11.1458L11.3754 13.4375L13.3008 14.2222ZM14.5749 9.72222H26.2406C26.644 9.72222 27.0476 9.875 27.359 10.1806C27.6705 10.4861 27.8262 10.8819 27.8262 11.2777C27.8262 11.6736 27.6705 12.0764 27.359 12.382L30.0348 15.0069C31.0824 13.9792 31.6062 12.625 31.6062 11.2777C31.6062 9.93059 31.0824 8.58333 30.0348 7.55558C28.9871 6.52777 27.6138 6.0139 26.2406 6.0139H18.355L14.5749 9.72222ZM19.0982 10.5556L27.3449 18.6528C27.6351 18.9306 27.812 19.3195 27.812 19.75C27.812 20.1805 27.6351 20.5694 27.3449 20.8542C27.0617 21.132 26.6653 21.3055 26.2264 21.3055V25.0208C27.7059 25.0208 29.0508 24.4305 30.0206 23.4792C30.9974 22.5208 31.5921 21.2083 31.5921 19.75C31.5921 18.2986 30.9904 16.9792 30.0206 16.0209L24.4497 10.5556H19.0982ZM21.6961 14.2847V25.7291C21.6961 26.125 21.5404 26.5278 21.2289 26.8333C20.9174 27.132 20.5139 27.2847 20.1105 27.2847C19.7069 27.2847 19.2964 27.132 18.992 26.8333L16.3092 29.4583C17.3639 30.4861 18.7372 31 20.1105 31C21.4837 31 22.857 30.4861 23.9117 29.4583C24.9594 28.4306 25.4832 27.0764 25.4832 25.7291L25.4761 18L21.6961 14.2847ZM20.8466 18.7222L12.6 26.8194C12.3098 27.0972 11.9134 27.2708 11.4745 27.2708C11.0356 27.2708 10.6463 27.0972 10.3561 26.8194C10.0659 26.5347 9.88886 26.1458 9.88886 25.7153H6.10181C6.10181 27.1736 6.70347 28.4861 7.68036 29.4445C8.6501 30.3958 9.99508 30.9861 11.4745 30.9861C12.961 30.9861 14.2989 30.3958 15.2758 29.4445L20.8466 23.9722V18.7222ZM17.0454 21.2709H5.37974C4.9763 21.2709 4.56574 21.1181 4.26135 20.8194C3.94989 20.5139 3.79416 20.118 3.79416 19.7153C3.79416 19.3195 3.94989 18.9236 4.26135 18.618L1.58562 15.9931C0.530902 17.0208 0.00707865 18.3681 0.00707865 19.7153C0.00707865 21.0625 0.530902 22.4167 1.58562 23.4444C2.63326 24.4722 4.00652 24.9861 5.37974 24.9861H13.2654L17.0454 21.2709ZM12.5009 20.3889L4.25427 12.2986C3.96405 12.0139 3.78708 11.625 3.78708 11.1945C3.78708 10.7639 3.96405 10.375 4.25427 10.0972C4.53742 9.81253 4.93382 9.63888 5.37269 9.63888V5.93051C3.89326 5.93051 2.54832 6.52085 1.57854 7.47224C0.601689 8.42358 0 9.74304 0 11.1945C0 12.6528 0.601689 13.9653 1.57854 14.9236L7.14943 20.3889H12.5009ZM9.92425 16.7083V5.2639C9.92425 4.86805 10.08 4.47222 10.3915 4.16666C10.6959 3.86111 11.1064 3.71528 11.5099 3.70833C11.9134 3.70833 12.3168 3.86111 12.6283 4.16666L15.3111 1.54167C14.2564 0.513889 12.8832 0 11.5099 0C10.1366 0 8.76337 0.513889 7.70865 1.54167C6.66104 2.56945 6.1372 3.91666 6.1372 5.27088V13L9.92425 16.7083ZM10.7737 12.2708L19.0204 4.18055C19.3106 3.89583 19.7069 3.72917 20.1459 3.72917C20.5848 3.72917 20.974 3.90278 21.2643 4.18055C21.5545 4.46528 21.7315 4.84722 21.7315 5.28467H25.5186C25.5186 3.82639 24.9098 2.50694 23.9401 1.55555C22.9703 0.604164 21.6253 0.0138887 20.1459 0.0138887C18.6593 0.0138887 17.3144 0.604164 16.3446 1.55555L10.7737 7.02083V12.2708ZM16.7552 17.7361L18.086 16.4236V14.5694L16.7552 13.2639H14.8652L13.5273 14.5694V16.4236L14.8652 17.7361H16.7552ZM13.7255 20.4375L10.7737 17.5486V13.4514L13.7255 10.5556H17.8948L20.8466 13.4514V17.5486L17.8948 20.4375H13.7255Z" fill="#2F88F0"/>
</svg>
